<mxfile host="Electron" modified="2023-10-24T15:00:06.623Z" agent="Mozilla/5.0 (Windows NT 10.0; Win64; x64) AppleWebKit/537.36 (KHTML, like Gecko) draw.io/22.0.0 Chrome/114.0.5735.289 Electron/25.8.3 Safari/537.36" etag="Js2odNIBbkal9_Upt-Rf" version="22.0.0" type="device" pages="3">
  <diagram name="SequenceDiagramm" id="13e1069c-82ec-6db2-03f1-153e76fe0fe0">
    <mxGraphModel dx="1276" dy="606" grid="1" gridSize="10" guides="1" tooltips="1" connect="1" arrows="1" fold="1" page="1" pageScale="1" pageWidth="1100" pageHeight="850" background="none" math="0" shadow="0">
      <root>
        <mxCell id="0" />
        <mxCell id="1" parent="0" />
        <mxCell id="7baba1c4bc27f4b0-2" value="M:Manufacturer" style="shape=umlLifeline;perimeter=lifelinePerimeter;whiteSpace=wrap;html=1;container=1;collapsible=0;recursiveResize=0;outlineConnect=0;rounded=1;shadow=0;comic=0;labelBackgroundColor=none;strokeWidth=1;fontFamily=Verdana;fontSize=12;align=center;fillColor=#FFFFFF;" parent="1" vertex="1">
          <mxGeometry x="420" y="80" width="100" height="670" as="geometry" />
        </mxCell>
        <mxCell id="7baba1c4bc27f4b0-3" value=":Product" style="shape=umlLifeline;perimeter=lifelinePerimeter;whiteSpace=wrap;html=1;container=1;collapsible=0;recursiveResize=0;outlineConnect=0;rounded=1;shadow=0;comic=0;labelBackgroundColor=none;strokeWidth=1;fontFamily=Verdana;fontSize=12;align=center;fillColor=#FFFFFF;" parent="1" vertex="1">
          <mxGeometry x="730" y="70" width="100" height="700" as="geometry" />
        </mxCell>
        <mxCell id="7baba1c4bc27f4b0-8" value="Gus:Distributor" style="shape=umlLifeline;perimeter=lifelinePerimeter;whiteSpace=wrap;html=1;container=1;collapsible=0;recursiveResize=0;outlineConnect=0;rounded=1;shadow=0;comic=0;labelBackgroundColor=none;strokeWidth=1;fontFamily=Verdana;fontSize=12;align=center;size=40;" parent="1" vertex="1">
          <mxGeometry x="100" y="80" width="100" height="810" as="geometry" />
        </mxCell>
        <mxCell id="7baba1c4bc27f4b0-9" value="" style="html=1;points=[];perimeter=orthogonalPerimeter;rounded=0;shadow=0;comic=0;labelBackgroundColor=none;strokeWidth=1;fontFamily=Verdana;fontSize=12;align=center;fillColor=#FFFFFF;" parent="7baba1c4bc27f4b0-8" vertex="1">
          <mxGeometry x="45" y="60" width="10" height="520" as="geometry" />
        </mxCell>
        <mxCell id="7yfPOh46jEXnV3EmBhoG-5" value="" style="html=1;verticalAlign=bottom;endArrow=block;labelBackgroundColor=none;fontFamily=Verdana;fontSize=12;elbow=vertical;edgeStyle=orthogonalEdgeStyle;curved=1;fillColor=#FFFFFF;" parent="7baba1c4bc27f4b0-8" edge="1">
          <mxGeometry relative="1" as="geometry">
            <mxPoint x="60" y="80" as="sourcePoint" />
            <mxPoint x="55" y="103" as="targetPoint" />
            <Array as="points">
              <mxPoint x="55" y="80" />
              <mxPoint x="90" y="80" />
              <mxPoint x="90" y="103" />
              <mxPoint x="70" y="103" />
            </Array>
          </mxGeometry>
        </mxCell>
        <mxCell id="7yfPOh46jEXnV3EmBhoG-7" value="" style="html=1;points=[];perimeter=orthogonalPerimeter;rounded=0;shadow=0;comic=0;labelBackgroundColor=none;strokeWidth=1;fontFamily=Verdana;fontSize=12;align=center;fillColor=#FFFFFF;" parent="7baba1c4bc27f4b0-8" vertex="1">
          <mxGeometry x="55" y="190" width="10" height="40" as="geometry" />
        </mxCell>
        <mxCell id="7yfPOh46jEXnV3EmBhoG-8" value="" style="html=1;verticalAlign=bottom;endArrow=block;labelBackgroundColor=none;fontFamily=Verdana;fontSize=12;elbow=vertical;edgeStyle=orthogonalEdgeStyle;curved=1;exitX=1.028;exitY=0.867;exitPerimeter=0;exitDx=0;exitDy=0;fillColor=#FFFFFF;" parent="7baba1c4bc27f4b0-8" source="7yfPOh46jEXnV3EmBhoG-7" edge="1">
          <mxGeometry x="-0.3352" y="64" relative="1" as="geometry">
            <mxPoint x="70.33333333333326" y="275.5" as="sourcePoint" />
            <mxPoint x="60" y="240" as="targetPoint" />
            <Array as="points">
              <mxPoint x="90" y="225" />
              <mxPoint x="90" y="240" />
            </Array>
            <mxPoint x="-14" y="-41" as="offset" />
          </mxGeometry>
        </mxCell>
        <mxCell id="7yfPOh46jEXnV3EmBhoG-10" value="demand=distributorDemand(p)" style="edgeLabel;html=1;align=center;verticalAlign=middle;resizable=0;points=[];fillColor=#FFFFFF;" parent="7yfPOh46jEXnV3EmBhoG-8" vertex="1" connectable="0">
          <mxGeometry x="0.0597" y="-2" relative="1" as="geometry">
            <mxPoint x="52" y="-28" as="offset" />
          </mxGeometry>
        </mxCell>
        <mxCell id="7yfPOh46jEXnV3EmBhoG-26" value="" style="html=1;points=[];perimeter=orthogonalPerimeter;rounded=0;shadow=0;comic=0;labelBackgroundColor=none;strokeWidth=1;fontFamily=Verdana;fontSize=12;align=center;fillColor=#FFFFFF;" parent="7baba1c4bc27f4b0-8" vertex="1">
          <mxGeometry x="52.5" y="250" width="10" height="40" as="geometry" />
        </mxCell>
        <mxCell id="7yfPOh46jEXnV3EmBhoG-41" value="" style="html=1;points=[];perimeter=orthogonalPerimeter;rounded=0;shadow=0;comic=0;labelBackgroundColor=none;strokeWidth=1;fontFamily=Verdana;fontSize=12;align=center;fillColor=#FFFFFF;" parent="7baba1c4bc27f4b0-8" vertex="1">
          <mxGeometry x="52.5" y="500" width="15" height="40" as="geometry" />
        </mxCell>
        <mxCell id="b2o2zWLgsq3m6Dm1KJdG-2" value="Distributer.GetProduct(M:Manufacturer)" style="shape=umlFrame;whiteSpace=wrap;html=1;pointerEvents=0;width=260;height=30;" parent="1" vertex="1">
          <mxGeometry x="40" y="20" width="870" height="620" as="geometry" />
        </mxCell>
        <mxCell id="7yfPOh46jEXnV3EmBhoG-1" value="loop(for each p in prods" style="shape=umlFrame;whiteSpace=wrap;html=1;pointerEvents=0;width=250;height=30;fillColor=#FFFFFF;" parent="1" vertex="1">
          <mxGeometry x="110" y="210" width="740" height="290" as="geometry" />
        </mxCell>
        <mxCell id="7yfPOh46jEXnV3EmBhoG-3" value="&lt;span style=&quot;color: rgb(0, 0, 0); font-family: Verdana; font-size: 12px; font-style: normal; font-variant-ligatures: normal; font-variant-caps: normal; font-weight: 400; letter-spacing: normal; orphans: 2; text-align: center; text-indent: 0px; text-transform: none; widows: 2; word-spacing: 0px; -webkit-text-stroke-width: 0px; background-color: rgb(251, 251, 251); text-decoration-thickness: initial; text-decoration-style: initial; text-decoration-color: initial; float: none; display: inline !important;&quot;&gt;bill =0&lt;br&gt;&lt;br&gt;&lt;/span&gt;" style="text;whiteSpace=wrap;html=1;fillColor=#FFFFFF;" parent="1" vertex="1">
          <mxGeometry x="190" y="160" width="50" height="20" as="geometry" />
        </mxCell>
        <mxCell id="7yfPOh46jEXnV3EmBhoG-9" value="prods = M.products" style="html=1;verticalAlign=bottom;endArrow=block;curved=0;rounded=0;exitX=0.859;exitY=0.236;exitDx=0;exitDy=0;exitPerimeter=0;fillColor=#FFFFFF;" parent="1" edge="1">
          <mxGeometry width="80" relative="1" as="geometry">
            <mxPoint x="154.99999999999991" y="200.00000000000006" as="sourcePoint" />
            <mxPoint x="475" y="201" as="targetPoint" />
          </mxGeometry>
        </mxCell>
        <mxCell id="7yfPOh46jEXnV3EmBhoG-23" value="" style="html=1;verticalAlign=bottom;endArrow=block;labelBackgroundColor=none;fontFamily=Verdana;fontSize=12;elbow=vertical;edgeStyle=orthogonalEdgeStyle;curved=1;entryX=0.5;entryY=0.367;entryDx=0;entryDy=0;entryPerimeter=0;fillColor=#FFFFFF;" parent="1" edge="1">
          <mxGeometry x="-0.3352" y="64" relative="1" as="geometry">
            <mxPoint x="160" y="461.03" as="sourcePoint" />
            <mxPoint x="149.99" y="476.03" as="targetPoint" />
            <Array as="points">
              <mxPoint x="190" y="460.03" />
              <mxPoint x="190" y="476.03" />
            </Array>
            <mxPoint x="-14" y="-41" as="offset" />
          </mxGeometry>
        </mxCell>
        <mxCell id="7yfPOh46jEXnV3EmBhoG-24" value="bill = p.setPrice*demand" style="edgeLabel;html=1;align=center;verticalAlign=middle;resizable=0;points=[];fillColor=#FFFFFF;" parent="7yfPOh46jEXnV3EmBhoG-23" vertex="1" connectable="0">
          <mxGeometry x="0.0597" y="-2" relative="1" as="geometry">
            <mxPoint x="62" y="-3" as="offset" />
          </mxGeometry>
        </mxCell>
        <mxCell id="7yfPOh46jEXnV3EmBhoG-34" value="" style="html=1;verticalAlign=bottom;endArrow=block;labelBackgroundColor=none;fontFamily=Verdana;fontSize=12;elbow=vertical;edgeStyle=orthogonalEdgeStyle;curved=1;exitX=1.028;exitY=0.867;exitPerimeter=0;exitDx=0;exitDy=0;entryX=0.5;entryY=0.367;entryDx=0;entryDy=0;entryPerimeter=0;fillColor=#FFFFFF;" parent="1" edge="1">
          <mxGeometry x="-0.3352" y="64" relative="1" as="geometry">
            <mxPoint x="164.97" y="362.5" as="sourcePoint" />
            <mxPoint x="149.97" y="377.5" as="targetPoint" />
            <Array as="points">
              <mxPoint x="189.97" y="362.5" />
              <mxPoint x="189.97" y="377.5" />
            </Array>
            <mxPoint x="-14" y="-41" as="offset" />
          </mxGeometry>
        </mxCell>
        <mxCell id="7yfPOh46jEXnV3EmBhoG-35" value="productD = findProductD(productCode)" style="edgeLabel;html=1;align=center;verticalAlign=middle;resizable=0;points=[];fillColor=#FFFFFF;" parent="7yfPOh46jEXnV3EmBhoG-34" vertex="1" connectable="0">
          <mxGeometry x="0.0597" y="-2" relative="1" as="geometry">
            <mxPoint x="102" y="-5" as="offset" />
          </mxGeometry>
        </mxCell>
        <mxCell id="7yfPOh46jEXnV3EmBhoG-37" value="" style="html=1;points=[];perimeter=orthogonalPerimeter;rounded=0;shadow=0;comic=0;labelBackgroundColor=none;strokeWidth=1;fontFamily=Verdana;fontSize=12;align=center;fillColor=#FFFFFF;" parent="1" vertex="1">
          <mxGeometry x="465" y="510" width="10" height="20" as="geometry" />
        </mxCell>
        <mxCell id="7yfPOh46jEXnV3EmBhoG-40" value="finance+=bill" style="html=1;verticalAlign=bottom;endArrow=block;curved=0;rounded=0;fillColor=#FFFFFF;entryX=1.107;entryY=0.733;entryDx=0;entryDy=0;entryPerimeter=0;exitX=0.059;exitY=0.528;exitDx=0;exitDy=0;exitPerimeter=0;" parent="1" source="7yfPOh46jEXnV3EmBhoG-37" target="7baba1c4bc27f4b0-9" edge="1">
          <mxGeometry width="80" relative="1" as="geometry">
            <mxPoint x="450" y="520" as="sourcePoint" />
            <mxPoint x="164.4" y="519.66" as="targetPoint" />
            <mxPoint as="offset" />
          </mxGeometry>
        </mxCell>
        <mxCell id="7yfPOh46jEXnV3EmBhoG-42" value="" style="html=1;verticalAlign=bottom;endArrow=block;labelBackgroundColor=none;fontFamily=Verdana;fontSize=12;elbow=vertical;edgeStyle=orthogonalEdgeStyle;curved=1;exitX=1.028;exitY=0.867;exitPerimeter=0;exitDx=0;exitDy=0;entryX=0.5;entryY=0.367;entryDx=0;entryDy=0;entryPerimeter=0;fillColor=#FFFFFF;" parent="1" edge="1">
          <mxGeometry x="-0.3352" y="64" relative="1" as="geometry">
            <mxPoint x="165.03" y="610" as="sourcePoint" />
            <mxPoint x="150.03" y="625" as="targetPoint" />
            <Array as="points">
              <mxPoint x="190.03" y="610" />
              <mxPoint x="190.03" y="625" />
            </Array>
            <mxPoint x="-14" y="-41" as="offset" />
          </mxGeometry>
        </mxCell>
        <mxCell id="7yfPOh46jEXnV3EmBhoG-43" value="finance-=bill" style="edgeLabel;html=1;align=center;verticalAlign=middle;resizable=0;points=[];fillColor=#FFFFFF;" parent="7yfPOh46jEXnV3EmBhoG-42" vertex="1" connectable="0">
          <mxGeometry x="0.0597" y="-2" relative="1" as="geometry">
            <mxPoint x="32" y="-4" as="offset" />
          </mxGeometry>
        </mxCell>
        <mxCell id="Ptl4w2JXufOPW5KuxIFW-8" value="p.quantity-=demand" style="html=1;verticalAlign=bottom;endArrow=block;curved=0;rounded=0;exitX=0.997;exitY=0.54;exitDx=0;exitDy=0;exitPerimeter=0;" parent="1" edge="1">
          <mxGeometry width="80" relative="1" as="geometry">
            <mxPoint x="154.97000000000003" y="404.0000000000001" as="sourcePoint" />
            <mxPoint x="779.5000000000002" y="404.0000000000001" as="targetPoint" />
          </mxGeometry>
        </mxCell>
        <mxCell id="Ptl4w2JXufOPW5KuxIFW-9" value="productD.quantity+=demand" style="html=1;verticalAlign=bottom;endArrow=block;curved=0;rounded=0;exitX=0.997;exitY=0.54;exitDx=0;exitDy=0;exitPerimeter=0;" parent="1" edge="1">
          <mxGeometry width="80" relative="1" as="geometry">
            <mxPoint x="155.97000000000003" y="440.0000000000001" as="sourcePoint" />
            <mxPoint x="780.5000000000002" y="440.0000000000001" as="targetPoint" />
          </mxGeometry>
        </mxCell>
      </root>
    </mxGraphModel>
  </diagram>
  <diagram id="5x8kL622ir6N8N4nqaBH" name="CommunicativeDiagramm">
    <mxGraphModel dx="880" dy="418" grid="1" gridSize="10" guides="1" tooltips="1" connect="1" arrows="1" fold="1" page="1" pageScale="1" pageWidth="850" pageHeight="1100" math="0" shadow="0">
      <root>
        <mxCell id="0" />
        <mxCell id="1" parent="0" />
        <mxCell id="fAXA9-ifoiDuvlKH5i2E-10" style="edgeStyle=orthogonalEdgeStyle;rounded=0;orthogonalLoop=1;jettySize=auto;html=1;exitX=0.42;exitY=0.623;exitDx=0;exitDy=0;exitPerimeter=0;entryX=0;entryY=0.5;entryDx=0;entryDy=0;" parent="1" edge="1">
          <mxGeometry relative="1" as="geometry">
            <mxPoint x="195" y="281.5" as="targetPoint" />
            <mxPoint x="22.59999999999991" y="281.38" as="sourcePoint" />
            <Array as="points">
              <mxPoint x="130" y="282" />
              <mxPoint x="130" y="282" />
            </Array>
          </mxGeometry>
        </mxCell>
        <mxCell id="azFwkAayxDmIdsOHj54z-1" value=":Manager" style="shape=umlActor;verticalLabelPosition=bottom;verticalAlign=top;html=1;fontStyle=1" parent="1" vertex="1">
          <mxGeometry x="12" y="237" width="30" height="60" as="geometry" />
        </mxCell>
        <mxCell id="fAXA9-ifoiDuvlKH5i2E-1" value="M:Manufacturer" style="html=1;whiteSpace=wrap;" parent="1" vertex="1">
          <mxGeometry x="195" y="257" width="230" height="91" as="geometry" />
        </mxCell>
        <mxCell id="sGNfCNLunA7QpV8BcU2W-14" style="edgeStyle=orthogonalEdgeStyle;rounded=0;orthogonalLoop=1;jettySize=auto;html=1;entryX=0.5;entryY=1;entryDx=0;entryDy=0;" parent="1" source="fAXA9-ifoiDuvlKH5i2E-2" target="-CMI3iq-4tWMzFefo_7b-3" edge="1">
          <mxGeometry relative="1" as="geometry" />
        </mxCell>
        <mxCell id="fAXA9-ifoiDuvlKH5i2E-2" value="S:Supplier" style="html=1;whiteSpace=wrap;" parent="1" vertex="1">
          <mxGeometry x="455" y="520" width="110" height="50" as="geometry" />
        </mxCell>
        <mxCell id="fAXA9-ifoiDuvlKH5i2E-25" value="1.request(codeP,quantity)" style="text;align=center;fontStyle=0;verticalAlign=middle;spacingLeft=3;spacingRight=3;strokeColor=none;rotatable=0;points=[[0,0.5],[1,0.5]];portConstraint=eastwest;html=1;" parent="1" vertex="1">
          <mxGeometry x="80" y="251" width="80" height="26" as="geometry" />
        </mxCell>
        <mxCell id="AZeuefEppqSlaZzGvnV4-2" value="sd Manager.RequestProduce(codeProduct,quantity)" style="shape=umlFrame;whiteSpace=wrap;html=1;pointerEvents=0;width=330;height=20;" parent="1" vertex="1">
          <mxGeometry y="170" width="840" height="420" as="geometry" />
        </mxCell>
        <mxCell id="-CMI3iq-4tWMzFefo_7b-2" value="P:Product" style="whiteSpace=wrap;html=1;" parent="1" vertex="1">
          <mxGeometry x="685" y="247" width="120" height="30" as="geometry" />
        </mxCell>
        <mxCell id="-CMI3iq-4tWMzFefo_7b-3" value="Sr:Source" style="whiteSpace=wrap;html=1;" parent="1" vertex="1">
          <mxGeometry x="580" y="450" width="120" height="26" as="geometry" />
        </mxCell>
        <mxCell id="-CMI3iq-4tWMzFefo_7b-5" value="1.2.4.2 demand = Demand(codeSupply)&lt;br&gt;[if source.quantity &amp;lt; quantity*product.raw]&amp;amp;&lt;br&gt;[requestSupply = true]" style="html=1;align=left;spacingLeft=2;endArrow=block;rounded=0;edgeStyle=orthogonalEdgeStyle;curved=0;rounded=0;exitX=0.317;exitY=1.022;exitDx=0;exitDy=0;exitPerimeter=0;" parent="1" source="fAXA9-ifoiDuvlKH5i2E-1" edge="1">
          <mxGeometry x="0.2183" y="82" relative="1" as="geometry">
            <mxPoint x="267.75" y="380" as="sourcePoint" />
            <Array as="points">
              <mxPoint x="268" y="400" />
              <mxPoint x="240" y="400" />
            </Array>
            <mxPoint x="240" y="350" as="targetPoint" />
            <mxPoint x="2" y="20" as="offset" />
          </mxGeometry>
        </mxCell>
        <mxCell id="-CMI3iq-4tWMzFefo_7b-6" value="1.2.3Produce(codeP,quantity)&lt;br&gt;[if source.quantity &amp;gt;= quantity*product.raw]" style="html=1;align=left;spacingLeft=2;endArrow=block;rounded=0;edgeStyle=orthogonalEdgeStyle;curved=0;rounded=0;entryX=0.5;entryY=0;entryDx=0;entryDy=0;exitX=0.723;exitY=0.016;exitDx=0;exitDy=0;exitPerimeter=0;" parent="1" source="fAXA9-ifoiDuvlKH5i2E-1" target="fAXA9-ifoiDuvlKH5i2E-1" edge="1">
          <mxGeometry x="0.5653" y="-54" relative="1" as="geometry">
            <mxPoint x="337.78" y="247" as="sourcePoint" />
            <Array as="points">
              <mxPoint x="370" y="259" />
              <mxPoint x="370" y="230" />
              <mxPoint x="310" y="230" />
            </Array>
            <mxPoint x="310.03" y="245" as="targetPoint" />
            <mxPoint x="4" y="-20" as="offset" />
          </mxGeometry>
        </mxCell>
        <mxCell id="sGNfCNLunA7QpV8BcU2W-2" value="R:Raw" style="whiteSpace=wrap;html=1;" parent="1" vertex="1">
          <mxGeometry x="688" y="370" width="120" height="30" as="geometry" />
        </mxCell>
        <mxCell id="sGNfCNLunA7QpV8BcU2W-4" value="1.2.2checkSource&lt;br&gt;(Sr.quantity)" style="text;html=1;align=center;verticalAlign=middle;resizable=0;points=[];autosize=1;strokeColor=none;fillColor=none;rotation=45;" parent="1" vertex="1">
          <mxGeometry x="470" y="360" width="120" height="40" as="geometry" />
        </mxCell>
        <mxCell id="sGNfCNLunA7QpV8BcU2W-5" value="" style="endArrow=open;endFill=1;endSize=12;html=1;rounded=0;exitX=1.014;exitY=0.071;exitDx=0;exitDy=0;entryX=0;entryY=0.5;entryDx=0;entryDy=0;exitPerimeter=0;" parent="1" source="fAXA9-ifoiDuvlKH5i2E-1" target="-CMI3iq-4tWMzFefo_7b-2" edge="1">
          <mxGeometry width="160" relative="1" as="geometry">
            <mxPoint x="460" y="240" as="sourcePoint" />
            <mxPoint x="620" y="240" as="targetPoint" />
          </mxGeometry>
        </mxCell>
        <mxCell id="sGNfCNLunA7QpV8BcU2W-6" value="1.2.1 getinfo(P.raw.unit)" style="text;html=1;align=center;verticalAlign=middle;resizable=0;points=[];autosize=1;strokeColor=none;fillColor=none;rotation=0;" parent="1" vertex="1">
          <mxGeometry x="490" y="234" width="150" height="30" as="geometry" />
        </mxCell>
        <mxCell id="sGNfCNLunA7QpV8BcU2W-7" value="" style="endArrow=open;endFill=1;endSize=12;html=1;rounded=0;exitX=1;exitY=0.5;exitDx=0;exitDy=0;entryX=0;entryY=0.75;entryDx=0;entryDy=0;" parent="1" source="fAXA9-ifoiDuvlKH5i2E-1" target="-CMI3iq-4tWMzFefo_7b-3" edge="1">
          <mxGeometry width="160" relative="1" as="geometry">
            <mxPoint x="460" y="240" as="sourcePoint" />
            <mxPoint x="620" y="240" as="targetPoint" />
          </mxGeometry>
        </mxCell>
        <mxCell id="sGNfCNLunA7QpV8BcU2W-8" value="" style="endArrow=open;endFill=1;endSize=12;html=1;rounded=0;exitX=0.533;exitY=0.986;exitDx=0;exitDy=0;exitPerimeter=0;entryX=0.5;entryY=0;entryDx=0;entryDy=0;" parent="1" source="-CMI3iq-4tWMzFefo_7b-2" target="sGNfCNLunA7QpV8BcU2W-2" edge="1">
          <mxGeometry width="160" relative="1" as="geometry">
            <mxPoint x="460" y="290" as="sourcePoint" />
            <mxPoint x="620" y="290" as="targetPoint" />
          </mxGeometry>
        </mxCell>
        <mxCell id="sGNfCNLunA7QpV8BcU2W-9" value="&lt;span style=&quot;color: rgb(0, 0, 0); font-family: Helvetica; font-size: 12px; font-style: normal; font-variant-ligatures: normal; font-variant-caps: normal; font-weight: 400; letter-spacing: normal; orphans: 2; text-align: center; text-indent: 0px; text-transform: none; widows: 2; word-spacing: 0px; -webkit-text-stroke-width: 0px; background-color: rgb(251, 251, 251); text-decoration-thickness: initial; text-decoration-style: initial; text-decoration-color: initial; float: none; display: inline !important;&quot;&gt;1.2.1.1 getinfo(raw.unit)&lt;/span&gt;" style="text;whiteSpace=wrap;html=1;rotation=0;" parent="1" vertex="1">
          <mxGeometry x="680" y="308" width="160" height="40" as="geometry" />
        </mxCell>
        <mxCell id="sGNfCNLunA7QpV8BcU2W-12" value="" style="endArrow=open;endFill=1;endSize=12;html=1;rounded=0;entryX=0.5;entryY=0;entryDx=0;entryDy=0;" parent="1" source="fAXA9-ifoiDuvlKH5i2E-1" target="fAXA9-ifoiDuvlKH5i2E-2" edge="1">
          <mxGeometry width="160" relative="1" as="geometry">
            <mxPoint x="329.6399999999999" y="276.48800000000006" as="sourcePoint" />
            <mxPoint x="339.5014141584702" y="441" as="targetPoint" />
          </mxGeometry>
        </mxCell>
        <mxCell id="sGNfCNLunA7QpV8BcU2W-13" value="&lt;div style=&quot;text-align: center;&quot;&gt;&lt;span style=&quot;background-color: initial;&quot;&gt;1.2.4.2. GetSupply(codeSupply,S)&lt;/span&gt;&lt;/div&gt;" style="text;whiteSpace=wrap;html=1;rotation=50;" parent="1" vertex="1">
          <mxGeometry x="390" y="400" width="130" height="50" as="geometry" />
        </mxCell>
        <mxCell id="sGNfCNLunA7QpV8BcU2W-15" value="&lt;div style=&quot;text-align: center;&quot;&gt;&lt;span style=&quot;background-color: initial;&quot;&gt;1.2.4.3&lt;/span&gt;&lt;/div&gt;&lt;div style=&quot;text-align: center;&quot;&gt;&lt;span style=&quot;background-color: initial;&quot;&gt;&amp;nbsp;takeSupplyRequest(Sr.quantity)&lt;/span&gt;&lt;/div&gt;" style="text;whiteSpace=wrap;html=1;" parent="1" vertex="1">
          <mxGeometry x="580" y="500" width="130" height="50" as="geometry" />
        </mxCell>
        <mxCell id="sGNfCNLunA7QpV8BcU2W-16" value="1.2.5 Produce(codeP,quantity)" style="html=1;align=left;spacingLeft=2;endArrow=block;rounded=0;edgeStyle=orthogonalEdgeStyle;curved=0;rounded=0;exitX=0;exitY=1;exitDx=0;exitDy=0;entryX=0;entryY=0.658;entryDx=0;entryDy=0;entryPerimeter=0;" parent="1" edge="1">
          <mxGeometry x="-0.193" y="84" relative="1" as="geometry">
            <mxPoint x="195" y="345" as="sourcePoint" />
            <Array as="points">
              <mxPoint x="132" y="345" />
              <mxPoint x="132" y="314" />
            </Array>
            <mxPoint x="195" y="313.87800000000004" as="targetPoint" />
            <mxPoint x="2" y="20" as="offset" />
          </mxGeometry>
        </mxCell>
        <mxCell id="AeFO2m1-lX2PSJ2ckOiB-1" value="1.2.4 requestSupply = true" style="text;html=1;align=center;verticalAlign=middle;resizable=0;points=[];autosize=1;strokeColor=none;fillColor=none;" vertex="1" parent="1">
          <mxGeometry x="40" y="277" width="160" height="30" as="geometry" />
        </mxCell>
      </root>
    </mxGraphModel>
  </diagram>
  <diagram id="qhh05SrGPCdZj-OcfNPc" name="AnalysisDiagramm">
    <mxGraphModel dx="1276" dy="606" grid="1" gridSize="10" guides="1" tooltips="1" connect="1" arrows="1" fold="1" page="1" pageScale="1" pageWidth="850" pageHeight="1100" math="0" shadow="0">
      <root>
        <mxCell id="0" />
        <mxCell id="1" parent="0" />
        <mxCell id="xQROvqXlaOrMIi93IrS0-3" value="" style="edgeStyle=orthogonalEdgeStyle;rounded=0;orthogonalLoop=1;jettySize=auto;html=1;entryX=0;entryY=0.5;entryDx=0;entryDy=0;" parent="1" source="xQROvqXlaOrMIi93IrS0-1" target="xQROvqXlaOrMIi93IrS0-9" edge="1">
          <mxGeometry relative="1" as="geometry">
            <mxPoint x="335" y="330" as="targetPoint" />
          </mxGeometry>
        </mxCell>
        <mxCell id="xQROvqXlaOrMIi93IrS0-1" value=":Manager&lt;br&gt;" style="shape=umlActor;verticalLabelPosition=bottom;verticalAlign=top;html=1;" parent="1" vertex="1">
          <mxGeometry x="80" y="300" width="30" height="60" as="geometry" />
        </mxCell>
        <mxCell id="xQROvqXlaOrMIi93IrS0-4" value="1:ChooseProduct" style="text;html=1;align=center;verticalAlign=middle;resizable=0;points=[];autosize=1;strokeColor=none;fillColor=none;" parent="1" vertex="1">
          <mxGeometry x="130" y="298" width="120" height="30" as="geometry" />
        </mxCell>
        <mxCell id="xQROvqXlaOrMIi93IrS0-8" value="Producing process" style="text;align=center;fontStyle=1;verticalAlign=middle;spacingLeft=3;spacingRight=3;strokeColor=none;rotatable=0;points=[[0,0.5],[1,0.5]];portConstraint=eastwest;html=1;" parent="1" vertex="1">
          <mxGeometry x="20" y="20" width="80" height="26" as="geometry" />
        </mxCell>
        <mxCell id="xQROvqXlaOrMIi93IrS0-9" value="" style="shape=umlBoundary;whiteSpace=wrap;html=1;" parent="1" vertex="1">
          <mxGeometry x="280" y="290" width="100" height="80" as="geometry" />
        </mxCell>
        <mxCell id="xQROvqXlaOrMIi93IrS0-13" value=":Page" style="text;align=center;fontStyle=1;verticalAlign=middle;spacingLeft=3;spacingRight=3;strokeColor=none;rotatable=0;points=[[0,0.5],[1,0.5]];portConstraint=eastwest;html=1;" parent="1" vertex="1">
          <mxGeometry x="310" y="370" width="80" height="26" as="geometry" />
        </mxCell>
        <mxCell id="xQROvqXlaOrMIi93IrS0-14" value=":ManufacturerController" style="text;align=center;fontStyle=1;verticalAlign=middle;spacingLeft=3;spacingRight=3;strokeColor=none;rotatable=0;points=[[0,0.5],[1,0.5]];portConstraint=eastwest;html=1;" parent="1" vertex="1">
          <mxGeometry x="490" y="610" width="80" height="26" as="geometry" />
        </mxCell>
        <mxCell id="AUUHDiPkV2cUmvpWY7Bh-31" value="" style="edgeStyle=orthogonalEdgeStyle;rounded=0;orthogonalLoop=1;jettySize=auto;html=1;" edge="1" parent="1" source="xQROvqXlaOrMIi93IrS0-31">
          <mxGeometry relative="1" as="geometry">
            <mxPoint x="760" y="435" as="targetPoint" />
          </mxGeometry>
        </mxCell>
        <mxCell id="xQROvqXlaOrMIi93IrS0-31" value="" style="shape=umlControl;whiteSpace=wrap;html=1;perimeter=ellipsePerimeter;" parent="1" vertex="1">
          <mxGeometry x="720" y="520" width="80" height="90" as="geometry" />
        </mxCell>
        <mxCell id="xQROvqXlaOrMIi93IrS0-33" value=":Producing" style="text;align=center;fontStyle=1;verticalAlign=middle;spacingLeft=3;spacingRight=3;strokeColor=none;rotatable=0;points=[[0,0.5],[1,0.5]];portConstraint=eastwest;html=1;" parent="1" vertex="1">
          <mxGeometry x="720" y="610" width="80" height="26" as="geometry" />
        </mxCell>
        <mxCell id="xQROvqXlaOrMIi93IrS0-34" value="3:Produce&lt;br&gt;[if materials are enough]" style="text;html=1;align=center;verticalAlign=middle;resizable=0;points=[];autosize=1;strokeColor=none;fillColor=none;rotation=0;" parent="1" vertex="1">
          <mxGeometry x="559" y="530" width="150" height="40" as="geometry" />
        </mxCell>
        <mxCell id="xQROvqXlaOrMIi93IrS0-35" value="" style="ellipse;shape=umlControl;whiteSpace=wrap;html=1;" parent="1" vertex="1">
          <mxGeometry x="484" y="520" width="75" height="90" as="geometry" />
        </mxCell>
        <mxCell id="AUUHDiPkV2cUmvpWY7Bh-4" value="" style="endArrow=open;endFill=1;endSize=12;html=1;rounded=0;" edge="1" parent="1" source="xQROvqXlaOrMIi93IrS0-9" target="xQROvqXlaOrMIi93IrS0-35">
          <mxGeometry width="160" relative="1" as="geometry">
            <mxPoint x="330" y="390" as="sourcePoint" />
            <mxPoint x="490" y="390" as="targetPoint" />
          </mxGeometry>
        </mxCell>
        <mxCell id="AUUHDiPkV2cUmvpWY7Bh-5" value="" style="endArrow=open;endFill=1;endSize=12;html=1;rounded=0;" edge="1" parent="1" source="xQROvqXlaOrMIi93IrS0-35" target="xQROvqXlaOrMIi93IrS0-31">
          <mxGeometry width="160" relative="1" as="geometry">
            <mxPoint x="464" y="480" as="sourcePoint" />
            <mxPoint x="624" y="480" as="targetPoint" />
          </mxGeometry>
        </mxCell>
        <mxCell id="AUUHDiPkV2cUmvpWY7Bh-8" value="&lt;span style=&quot;color: rgb(0, 0, 0); font-family: Helvetica; font-size: 12px; font-style: normal; font-variant-ligatures: normal; font-variant-caps: normal; font-weight: 400; letter-spacing: normal; orphans: 2; text-align: center; text-indent: 0px; text-transform: none; widows: 2; word-spacing: 0px; -webkit-text-stroke-width: 0px; background-color: rgb(251, 251, 251); text-decoration-thickness: initial; text-decoration-style: initial; text-decoration-color: initial; float: none; display: inline !important;&quot;&gt;2:SendRequest&lt;/span&gt;" style="text;whiteSpace=wrap;html=1;rotation=50;" vertex="1" parent="1">
          <mxGeometry x="380" y="430" width="120" height="40" as="geometry" />
        </mxCell>
        <mxCell id="AUUHDiPkV2cUmvpWY7Bh-9" value="" style="ellipse;shape=umlControl;whiteSpace=wrap;html=1;" vertex="1" parent="1">
          <mxGeometry x="224" y="530" width="70" height="80" as="geometry" />
        </mxCell>
        <mxCell id="AUUHDiPkV2cUmvpWY7Bh-10" value="" style="endArrow=open;endFill=1;endSize=12;html=1;rounded=0;exitX=-0.011;exitY=0.571;exitDx=0;exitDy=0;exitPerimeter=0;" edge="1" parent="1" source="xQROvqXlaOrMIi93IrS0-35" target="AUUHDiPkV2cUmvpWY7Bh-9">
          <mxGeometry width="160" relative="1" as="geometry">
            <mxPoint x="464" y="480" as="sourcePoint" />
            <mxPoint x="624" y="480" as="targetPoint" />
          </mxGeometry>
        </mxCell>
        <mxCell id="AUUHDiPkV2cUmvpWY7Bh-11" value="&lt;span style=&quot;color: rgb(0, 0, 0); font-family: Helvetica; font-size: 12px; font-style: normal; font-variant-ligatures: normal; font-variant-caps: normal; font-weight: 700; letter-spacing: normal; orphans: 2; text-align: center; text-indent: 0px; text-transform: none; widows: 2; word-spacing: 0px; -webkit-text-stroke-width: 0px; background-color: rgb(251, 251, 251); text-decoration-thickness: initial; text-decoration-style: initial; text-decoration-color: initial; float: none; display: inline !important;&quot;&gt;:MaterialController&lt;/span&gt;" style="text;whiteSpace=wrap;html=1;" vertex="1" parent="1">
          <mxGeometry x="214" y="610" width="110" height="40" as="geometry" />
        </mxCell>
        <mxCell id="AUUHDiPkV2cUmvpWY7Bh-12" value="&lt;span style=&quot;color: rgb(0, 0, 0); font-family: Helvetica; font-size: 12px; font-style: normal; font-variant-ligatures: normal; font-variant-caps: normal; font-weight: 400; letter-spacing: normal; orphans: 2; text-align: center; text-indent: 0px; text-transform: none; widows: 2; word-spacing: 0px; -webkit-text-stroke-width: 0px; background-color: rgb(251, 251, 251); text-decoration-thickness: initial; text-decoration-style: initial; text-decoration-color: initial; float: none; display: inline !important;&quot;&gt;3.2:SendException&lt;/span&gt;&lt;br style=&quot;border-color: var(--border-color); color: rgb(0, 0, 0); font-family: Helvetica; font-size: 12px; font-style: normal; font-variant-ligatures: normal; font-variant-caps: normal; font-weight: 400; letter-spacing: normal; orphans: 2; text-align: center; text-indent: 0px; text-transform: none; widows: 2; word-spacing: 0px; -webkit-text-stroke-width: 0px; background-color: rgb(251, 251, 251); text-decoration-thickness: initial; text-decoration-style: initial; text-decoration-color: initial;&quot;&gt;&lt;span style=&quot;color: rgb(0, 0, 0); font-family: Helvetica; font-size: 12px; font-style: normal; font-variant-ligatures: normal; font-variant-caps: normal; font-weight: 400; letter-spacing: normal; orphans: 2; text-align: center; text-indent: 0px; text-transform: none; widows: 2; word-spacing: 0px; -webkit-text-stroke-width: 0px; background-color: rgb(251, 251, 251); text-decoration-thickness: initial; text-decoration-style: initial; text-decoration-color: initial; float: none; display: inline !important;&quot;&gt;[if materials are not enough]&lt;/span&gt;" style="text;whiteSpace=wrap;html=1;" vertex="1" parent="1">
          <mxGeometry x="324" y="525" width="160" height="50" as="geometry" />
        </mxCell>
        <mxCell id="AUUHDiPkV2cUmvpWY7Bh-13" value="" style="endArrow=open;endFill=1;endSize=12;html=1;rounded=0;" edge="1" parent="1" source="AUUHDiPkV2cUmvpWY7Bh-9" target="xQROvqXlaOrMIi93IrS0-1">
          <mxGeometry width="160" relative="1" as="geometry">
            <mxPoint x="360" y="480" as="sourcePoint" />
            <mxPoint x="520" y="480" as="targetPoint" />
          </mxGeometry>
        </mxCell>
        <mxCell id="AUUHDiPkV2cUmvpWY7Bh-14" value="&lt;span style=&quot;border-color: var(--border-color); color: rgb(0, 0, 0); font-family: Helvetica; font-size: 12px; font-style: normal; font-variant-ligatures: normal; font-variant-caps: normal; font-weight: 400; letter-spacing: normal; orphans: 2; text-indent: 0px; text-transform: none; widows: 2; word-spacing: 0px; -webkit-text-stroke-width: 0px; text-decoration-thickness: initial; text-decoration-style: initial; text-decoration-color: initial; text-align: center; background-color: rgb(251, 251, 251); float: none; display: inline !important;&quot;&gt;3.2:1SupplyRequest&lt;/span&gt;" style="text;whiteSpace=wrap;html=1;rotation=55;" vertex="1" parent="1">
          <mxGeometry x="138" y="440" width="110" height="30" as="geometry" />
        </mxCell>
        <mxCell id="AUUHDiPkV2cUmvpWY7Bh-17" value="4:VerifySupplyRequest&lt;br&gt;(request)" style="text;html=1;align=center;verticalAlign=middle;resizable=0;points=[];autosize=1;strokeColor=none;fillColor=none;" vertex="1" parent="1">
          <mxGeometry x="120" y="328" width="140" height="40" as="geometry" />
        </mxCell>
        <mxCell id="AUUHDiPkV2cUmvpWY7Bh-24" value="" style="edgeStyle=orthogonalEdgeStyle;rounded=0;orthogonalLoop=1;jettySize=auto;html=1;" edge="1" parent="1" source="AUUHDiPkV2cUmvpWY7Bh-18" target="AUUHDiPkV2cUmvpWY7Bh-29">
          <mxGeometry relative="1" as="geometry">
            <mxPoint x="718" y="120" as="targetPoint" />
          </mxGeometry>
        </mxCell>
        <mxCell id="AUUHDiPkV2cUmvpWY7Bh-18" value="" style="ellipse;shape=umlControl;whiteSpace=wrap;html=1;" vertex="1" parent="1">
          <mxGeometry x="484" y="80" width="76" height="80" as="geometry" />
        </mxCell>
        <mxCell id="AUUHDiPkV2cUmvpWY7Bh-19" value="" style="endArrow=open;endFill=1;endSize=12;html=1;rounded=0;" edge="1" parent="1" source="xQROvqXlaOrMIi93IrS0-9" target="AUUHDiPkV2cUmvpWY7Bh-18">
          <mxGeometry width="160" relative="1" as="geometry">
            <mxPoint x="340" y="260" as="sourcePoint" />
            <mxPoint x="500" y="260" as="targetPoint" />
          </mxGeometry>
        </mxCell>
        <mxCell id="AUUHDiPkV2cUmvpWY7Bh-20" value="4.1: SendRequestToSupplier&lt;br&gt;[if request = true]" style="text;html=1;align=center;verticalAlign=middle;resizable=0;points=[];autosize=1;strokeColor=none;fillColor=none;rotation=-45;" vertex="1" parent="1">
          <mxGeometry x="314" y="200" width="180" height="40" as="geometry" />
        </mxCell>
        <mxCell id="AUUHDiPkV2cUmvpWY7Bh-26" value="&lt;b&gt;:SupplyController&lt;/b&gt;" style="text;html=1;align=center;verticalAlign=middle;resizable=0;points=[];autosize=1;strokeColor=none;fillColor=none;" vertex="1" parent="1">
          <mxGeometry x="461.5" y="160" width="120" height="30" as="geometry" />
        </mxCell>
        <mxCell id="AUUHDiPkV2cUmvpWY7Bh-27" value="4.2 GetSupply" style="text;html=1;align=center;verticalAlign=middle;resizable=0;points=[];autosize=1;strokeColor=none;fillColor=none;" vertex="1" parent="1">
          <mxGeometry x="590" y="90" width="100" height="30" as="geometry" />
        </mxCell>
        <mxCell id="AUUHDiPkV2cUmvpWY7Bh-28" value="&lt;b&gt;:Supplier&lt;/b&gt;" style="text;html=1;align=center;verticalAlign=middle;resizable=0;points=[];autosize=1;strokeColor=none;fillColor=none;" vertex="1" parent="1">
          <mxGeometry x="720" y="160" width="80" height="30" as="geometry" />
        </mxCell>
        <mxCell id="AUUHDiPkV2cUmvpWY7Bh-29" value="" style="ellipse;shape=umlEntity;whiteSpace=wrap;html=1;" vertex="1" parent="1">
          <mxGeometry x="720" y="80" width="80" height="80" as="geometry" />
        </mxCell>
        <mxCell id="AUUHDiPkV2cUmvpWY7Bh-32" value="" style="ellipse;shape=umlEntity;whiteSpace=wrap;html=1;" vertex="1" parent="1">
          <mxGeometry x="720" y="350" width="80" height="80" as="geometry" />
        </mxCell>
        <mxCell id="AUUHDiPkV2cUmvpWY7Bh-33" value=":&lt;b&gt;Product&lt;/b&gt;" style="text;html=1;align=center;verticalAlign=middle;resizable=0;points=[];autosize=1;strokeColor=none;fillColor=none;" vertex="1" parent="1">
          <mxGeometry x="730" y="430" width="70" height="30" as="geometry" />
        </mxCell>
        <mxCell id="AUUHDiPkV2cUmvpWY7Bh-34" value="3.1: UpdateProductQuantity" style="text;html=1;align=center;verticalAlign=middle;resizable=0;points=[];autosize=1;strokeColor=none;fillColor=none;" vertex="1" parent="1">
          <mxGeometry x="675" y="470" width="170" height="30" as="geometry" />
        </mxCell>
      </root>
    </mxGraphModel>
  </diagram>
</mxfile>
